<?xml version="1.0" encoding="utf-8"?>
<!-- Svg Vector Icons : http://www.onlinewebfonts.com/icon -->
<svg version="1.1" xmlns="http://www.w3.org/2000/svg" xmlns:xlink="http://www.w3.org/1999/xlink" x="0px" y="0px" viewBox="0 0 1000 1000" enable-background="new 0 0 1000 1000" xml:space="preserve">
<g><path d="M565.4,700.9c-13.6,0-23.2-2.2-28.8-6.5c-5.5-4.4-8.3-12.5-8.3-24.6c0-4.8,0.9-11.8,2.6-21.1c1.7-9.3,3.6-17.6,5.7-24.9l26.3-90.5c2.5-8.3,4.3-17.4,5.3-27.4c1-10,1.4-16.9,1.4-20.9c0-19.1-6.9-34.6-20.7-46.5c-13.8-11.9-33.4-17.9-58.8-17.9c-14.1,0-29.1,2.5-44.9,7.3c-15.8,4.9-32.3,10.7-49.7,17.6l-7,28c5.1-1.9,11.3-3.8,18.4-5.9c7.2-2.1,14.2-3.1,21-3.1c13.9,0,23.3,2.3,28.3,6.8c4.9,4.6,7.4,12.7,7.4,24.3c0,6.4-0.8,13.5-2.4,21.3c-1.6,7.8-3.6,16-5.9,24.7L429,632.4c-2.4,9.5-4.1,18.1-5.1,25.7c-1,7.5-1.6,15-1.6,22.2c0,18.7,7.1,34.1,21.3,46.2c14.2,12.1,34.1,18.2,59.7,18.2c16.7,0,31.3-2.1,43.8-6.4c12.6-4.2,29.5-10.4,50.6-18.5l7-28c-3.6,1.7-9.5,3.6-17.6,5.8C579.1,699.8,571.8,700.9,565.4,700.9 M548.7,254.8c-17.3,0-32.1,5.6-44.5,16.8c-12.4,11.2-18.6,24.7-18.6,40.4c0,15.8,6.2,29.2,18.6,40.3c12.4,11.1,27.2,16.6,44.5,16.6c17.3,0,32.1-5.5,44.3-16.6s18.4-24.5,18.4-40.3c0-15.8-6.1-29.3-18.4-40.4C580.8,260.4,566,254.8,548.7,254.8 M500,10C229.4,10,10,229.4,10,500c0,270.6,219.4,490,490,490c270.6,0,490-219.4,490-490C990,229.4,770.6,10,500,10 M500,945.5C254,945.5,54.5,746,54.5,500C54.5,254,254,54.5,500,54.5C746,54.5,945.5,254,945.5,500C945.5,746,746,945.5,500,945.5"/></g>
</svg>