<svg width="1060" height="1060" xmlns="http://www.w3.org/2000/svg">

 <g>
  <title>background</title>
  <rect fill="none" id="canvas_background" height="1062" width="1062" y="-1" x="-1"/>
 </g>
 <g>
  <title>Layer 1</title>
  <g id="svg_1">
   <g id="svg_2">
    <path id="svg_3" d="m285.00001,452.850009l0,216.2c0,33 26.8,59.8 59.8,59.8l370.4,0c33,0 59.8,-26.8 59.8,-59.8l0,-216.2c0,-31.4 -25.5,-56.9 -56.9,-56.9l-79.6,0l-1.9,-8.3c-7.7,-33.3 -37,-56.5 -71.2,-56.5l-70.9,0c-34.1,0 -63.4,23.2 -71.2,56.5l-1.9,8.3l-79.5,0c-31.4,0 -56.9,25.6 -56.9,56.9zm146.2,-32.4c5.7,0 10.6,-3.9 11.9,-9.5l4.1,-17.8c5.2,-22.1 24.6,-37.5 47.3,-37.5l70.9,0c22.7,0 42.1,15.4 47.3,37.5l4.1,17.8c1.3,5.5 6.2,9.5 11.9,9.5l89.3,0c17.9,0 32.4,14.5 32.4,32.4l0,216.2c0,19.5 -15.8,35.3 -35.3,35.3l-370.3,0c-19.5,0 -35.3,-15.8 -35.3,-35.3l0,-216.2c0,-17.9 14.5,-32.4 32.4,-32.4l89.3,0z"/>
    <circle id="svg_4" r="16.4" cy="472.750009" cx="367.90001"/>
    <path id="svg_5" d="m530.00001,665.950009c56.7,0 102.9,-46.2 102.9,-102.9s-46.2,-102.9 -102.9,-102.9s-102.9,46.1 -102.9,102.9s46.2,102.9 102.9,102.9zm0,-181.3c43.2,0 78.4,35.2 78.4,78.4s-35.2,78.4 -78.4,78.4s-78.4,-35.2 -78.4,-78.4s35.2,-78.4 78.4,-78.4z"/>
   </g>
  </g>
  <g id="svg_6"/>
  <g id="svg_7"/>
  <g id="svg_8"/>
  <g id="svg_9"/>
  <g id="svg_10"/>
  <g id="svg_11"/>
  <g id="svg_12"/>
  <g id="svg_13"/>
  <g id="svg_14"/>
  <g id="svg_15"/>
  <g id="svg_16"/>
  <g id="svg_17"/>
  <g id="svg_18"/>
  <g id="svg_19"/>
  <g id="svg_20"/>
 </g>
</svg>