<?xml version="1.0"?>
<svg xmlns="http://www.w3.org/2000/svg" height="512px" viewBox="-1 0 512 512" width="512px"><g><path d="m465 30c-5.855469 0-11.449219 1.136719-16.585938 3.179688-5.203124-19.09375-22.691406-33.179688-43.414062-33.179688s-38.210938 14.085938-43.414062 33.179688c-5.136719-2.042969-10.730469-3.179688-16.585938-3.179688-24.8125 0-45 20.1875-45 45v17.578125c-4.695312-1.664063-9.742188-2.578125-15-2.578125-11.515625 0-22.03125 4.355469-30 11.496094-7.96875-7.140625-18.484375-11.496094-30-11.496094-5.257812 0-10.304688.914062-15 2.578125v-17.578125c0-24.8125-20.1875-45-45-45-5.855469 0-11.449219 1.136719-16.585938 3.179688-5.203124-19.09375-22.691406-33.179688-43.414062-33.179688s-38.210938 14.085938-43.414062 33.179688c-5.136719-2.042969-10.730469-3.179688-16.585938-3.179688-24.8125 0-45 20.1875-45 45v281.992188c0 13.421874 4.527344 32.59375 10.527344 44.597656l19.472656 38.945312v71.464844h450v-71.464844l19.472656-38.945312c6-12.003906 10.527344-31.175782 10.527344-44.597656v-281.992188c0-24.8125-20.1875-45-45-45zm0 30c8.269531 0 15 6.730469 15 15v77.578125c-4.695312-1.664063-9.742188-2.578125-15-2.578125s-10.304688.914062-15 2.578125v-77.578125c0-8.269531 6.730469-15 15-15zm-420 0c8.269531 0 15 6.730469 15 15v77.578125c-4.695312-1.664063-9.742188-2.578125-15-2.578125s-10.304688.914062-15 2.578125v-77.578125c0-8.269531 6.730469-15 15-15zm-7.640625 328.171875c-3.851563-7.703125-7.359375-22.566406-7.359375-31.179687v-161.992188c0-8.269531 6.730469-15 15-15s15 6.730469 15 15v106.992188h15c41.355469 0 75 33.644531 75 75h30c0-52.804688-39.183594-96.628907-90-103.929688v-228.0625c0-8.269531 6.730469-15 15-15s15 6.730469 15 15v195h30v-165c0-8.269531 6.730469-15 15-15s15 6.730469 15 15v165h30v-105c0-8.269531 6.730469-15 15-15s15 6.730469 15 15v347h-180v-48.546875zm442.640625-31.179687c0 8.613281-3.507812 23.476562-7.359375 31.179687l-22.640625 45.28125v48.546875h-180v-347c0-8.269531 6.730469-15 15-15s15 6.730469 15 15v105h30v-165c0-8.269531 6.730469-15 15-15s15 6.730469 15 15v165h30v-195c0-8.269531 6.730469-15 15-15s15 6.730469 15 15v228.0625c-50.816406 7.300781-90 51.125-90 103.929688h30c0-41.351563 33.644531-75 75-75h15v-106.992188c0-8.269531 6.730469-15 15-15s15 6.730469 15 15zm0 0" data-original="#000000" class="active-path" data-old_color="#000000" fill="#FFFFFF"/></g> </svg>
