<svg xmlns="http://www.w3.org/2000/svg" x="0px" y="0px" viewBox="19 21 32 30">
<path d="M45.6066 39.3934C43.9729 37.7596 42.0283 36.5502 39.9066 35.8181C42.179 34.253 43.6719 31.6337 43.6719 28.6719C43.6719 23.8902 39.7817 20 35 20C30.2183 20 26.3281 23.8902 26.3281 28.6719C26.3281 31.6337 27.821 34.253 30.0935 35.8181C27.9718 36.5502 26.0272 37.7596 24.3934 39.3934C21.5603 42.2265 20 45.9934 20 50H22.3438C22.3438 43.0213 28.0213 37.3438 35 37.3438C41.9787 37.3438 47.6562 43.0213 47.6562 50H50C50 45.9934 48.4397 42.2265 45.6066 39.3934ZM35 35C31.5107 35 28.6719 32.1612 28.6719 28.6719C28.6719 25.1825 31.5107 22.3438 35 22.3438C38.4893 22.3438 41.3281 25.1825 41.3281 28.6719C41.3281 32.1612 38.4893 35 35 35Z"/>
</svg>
