<svg id="Layer_1" data-name="Layer 1" xmlns="http://www.w3.org/2000/svg" viewBox="0 0 994.21 237.87"><defs><style>.cls-1,.cls-3{fill:#5e3722;}.cls-1,.cls-2{opacity:0.7;}.cls-4{fill:#231f20;}.cls-5{fill:#599faa;}.cls-6{fill:#1c9156;}.cls-7{fill:#37b77a;}.cls-8{fill:#333;}.cls-9{fill:#fff;}.cls-10{fill:#7fc5cc;}.cls-11{fill:#75c2d3;}.cls-12{fill:#92cfe0;}</style></defs><title>BonanzaGreen</title><ellipse class="cls-1" cx="1013.08" cy="549.41" rx="28.55" ry="27.77" transform="translate(-813.71 -412.23) rotate(-1.57)"/><g class="cls-2"><path class="cls-3" d="M1093.34,649.33a15,15,0,0,1-5,20.25l-6.88,4.23L1044.87,605a63.24,63.24,0,0,0,15.51-12.77Z" transform="translate(-799 -440.27)"/><path class="cls-3" d="M1044.87,605l36.61,68.85-3.68,2.25a14.09,14.09,0,0,1-19.64-5.15L1024.4,612.4A60.85,60.85,0,0,0,1044.87,605Z" transform="translate(-799 -440.27)"/><path class="cls-3" d="M1076.65,548a65.36,65.36,0,0,1-16.27,44.2l-6.37-11a14.17,14.17,0,0,0-15.28-6.91,37.15,37.15,0,0,0,9.9-25.88c-.25-20.25-16.37-36.45-36-36.18a34.45,34.45,0,0,0-15.11,3.68l-12.73-23.93a60.76,60.76,0,0,1,28.56-7.54C1047.85,483.94,1076.2,512.41,1076.65,548Z" transform="translate(-799 -440.27)"/><path class="cls-3" d="M1054,581.16l6.37,11A63.24,63.24,0,0,1,1044.87,605l-13.21-24.85a36.37,36.37,0,0,0,7.07-5.86A14.17,14.17,0,0,1,1054,581.16Z" transform="translate(-799 -440.27)"/><path class="cls-3" d="M1048.63,548.37a37.15,37.15,0,0,1-9.9,25.88,13.93,13.93,0,0,0-4.36,1.76l-3.69,2.26-3.34-6.29a28.24,28.24,0,0,0-7.38-52.43.17.17,0,0,0-.1,0,27.72,27.72,0,0,0-19.29,2.11l-3.06-5.76a34.45,34.45,0,0,1,15.11-3.68C1032.26,511.92,1048.38,528.12,1048.63,548.37Z" transform="translate(-799 -440.27)"/><path class="cls-3" d="M1031.66,580.11,1044.87,605a60.85,60.85,0,0,1-20.47,7.44l-5.57-9.66a15.09,15.09,0,0,1,2.38-18.2A34.7,34.7,0,0,0,1031.66,580.11Z" transform="translate(-799 -440.27)"/><path class="cls-3" d="M1037.35,532.64a30.06,30.06,0,0,1,2.73,24.5,29.72,29.72,0,0,0-3.89-11,28.13,28.13,0,0,0-29.74-13.42h0l-5.73-10.78a29,29,0,0,1,19.15-2.38.17.17,0,0,1,.1,0A28.39,28.39,0,0,1,1037.35,532.64Z" transform="translate(-799 -440.27)"/><path class="cls-3" d="M1040.08,557.14a30.06,30.06,0,0,0-2.73-24.5A28.39,28.39,0,0,0,1020,519.55a28.24,28.24,0,0,1,7.38,52.43l-20.89-39.29a28.13,28.13,0,0,1,29.74,13.42A29.72,29.72,0,0,1,1040.08,557.14Z" transform="translate(-799 -440.27)"/><path class="cls-3" d="M1034.37,576a13.93,13.93,0,0,1,4.36-1.76,36.37,36.37,0,0,1-7.07,5.86l-1-1.84Z" transform="translate(-799 -440.27)"/><path class="cls-3" d="M1030.68,578.27l1,1.84a34.7,34.7,0,0,1-10.45,4.43,14.16,14.16,0,0,1,2.6-2Z" transform="translate(-799 -440.27)"/><path class="cls-3" d="M1027.34,572l3.34,6.29-6.87,4.22a14.16,14.16,0,0,0-2.6,2,34.55,34.55,0,0,1-7.66,1c-19.65.27-35.77-15.93-36-36.18a36.78,36.78,0,0,1,20-33.45l3.06,5.76h0a25.5,25.5,0,0,0-2.49,1.4,29.82,29.82,0,0,0-13.41,29.42c.18-.58.38-1.15.61-1.72A28.57,28.57,0,0,0,1027.34,572Z" transform="translate(-799 -440.27)"/><path class="cls-3" d="M1006.45,532.69,1027.34,572a28.57,28.57,0,0,1-42.06-21.24,29.22,29.22,0,0,1,11.65-14.22A28.24,28.24,0,0,1,1006.45,532.69Z" transform="translate(-799 -440.27)"/><path class="cls-3" d="M1018.83,602.74l5.57,9.66a60.77,60.77,0,0,1-9.43.86c-34.5.46-62.85-28-63.3-63.59a64.75,64.75,0,0,1,33.11-57.73l12.73,23.93a36.78,36.78,0,0,0-20,33.45c.25,20.25,16.37,36.45,36,36.18a34.55,34.55,0,0,0,7.66-1A15.09,15.09,0,0,0,1018.83,602.74Z" transform="translate(-799 -440.27)"/><path class="cls-3" d="M1019.86,519.52a29,29,0,0,0-19.15,2.38l-.14-.26h0A27.72,27.72,0,0,1,1019.86,519.52Z" transform="translate(-799 -440.27)"/><path class="cls-3" d="M1006.44,532.68h0a28.24,28.24,0,0,0-9.52,3.83,29.22,29.22,0,0,0-11.65,14.22,25.73,25.73,0,0,1-.23-3.18,28.33,28.33,0,0,1,15.66-25.66Z" transform="translate(-799 -440.27)"/><path class="cls-3" d="M1000.57,521.64l.14.26a28.33,28.33,0,0,0-15.66,25.66,25.73,25.73,0,0,0,.23,3.18c-.23.57-.43,1.14-.61,1.72A29.82,29.82,0,0,1,998.08,523,25.5,25.5,0,0,1,1000.57,521.64Z" transform="translate(-799 -440.27)"/></g><g class="cls-2"><path class="cls-4" d="M1792.6,538.67a55.75,55.75,0,0,1,.61,8.45,56.55,56.55,0,0,1-.6,8.46Z" transform="translate(-799 -440.27)"/><path class="cls-4" d="M1792.61,555.58l0,41.93A13.73,13.73,0,0,1,1778.71,611a14.09,14.09,0,0,1-9.85-3.95,13.29,13.29,0,0,1-4-8.64,64.15,64.15,0,0,1-35,10.23c-35,0-63.44-27.49-63.46-61.47a59.69,59.69,0,0,1,11.27-35,62.08,62.08,0,0,1,23.58-19.94,65,65,0,0,1,63.5,3.59l.68.44a61.2,61.2,0,0,1,27.21,42.39Zm-25-9.32a34.2,34.2,0,0,0-2.16-12,16.41,16.41,0,0,0-.68-1.65,35.91,35.91,0,0,0-33.13-21.51c-19.86,0-35.93,15.77-35.92,35.17s16.11,35.14,36,35.13a35.89,35.89,0,0,0,33.1-21.55,14.36,14.36,0,0,0,.68-1.65A34.2,34.2,0,0,0,1767.58,546.26Z" transform="translate(-799 -440.27)"/><path class="cls-4" d="M1645.16,580.89a13.73,13.73,0,0,1,13.94,13.51A13.3,13.3,0,0,1,1655,604a14.15,14.15,0,0,1-9.86,4l-107,.06a15.4,15.4,0,0,1-2.19-1.61,13.21,13.21,0,0,1-.84-19.08l6-6.34,64.67-68.43.26-.29-57.76,0a13.71,13.71,0,0,1-13.94-13.5,12.76,12.76,0,0,1,.19-2.16,13.77,13.77,0,0,1,13.73-11.36l96.73-.06a13.38,13.38,0,0,1,3.44,2.2s0,0,0,0a13.23,13.23,0,0,1,.84,19.08l-5.39,5.72-.08.07-64.93,68.65Z" transform="translate(-799 -440.27)"/><path class="cls-4" d="M1511.26,540.81a53,53,0,0,1,.38,6.59,55.15,55.15,0,0,1-.37,6.59Z" transform="translate(-799 -440.27)"/><path class="cls-4" d="M1511.27,554l0,42.47a13.44,13.44,0,0,1-6.67,11.54,14.26,14.26,0,0,1-7.25,2,13.82,13.82,0,0,1-13.79-11.49,12.12,12.12,0,0,1-.15-2l0-63.05a36.18,36.18,0,0,0-68,3.73l0,58.55a12.93,12.93,0,0,1-.64,4,14,14,0,0,1-27.22-4l0-66.31a61.91,61.91,0,0,1,27.84-34.66,65.21,65.21,0,0,1,68,1.46,61.23,61.23,0,0,1,27.89,44.59Z" transform="translate(-799 -440.27)"/><path class="cls-4" d="M1366.28,538.44l0,58.84a13.71,13.71,0,0,1-13.93,13.51,14,14,0,0,1-9.85-3.94,13.29,13.29,0,0,1-4-8.64,64.15,64.15,0,0,1-35,10.23c-35,0-63.44-27.49-63.46-61.47a59.69,59.69,0,0,1,11.27-35A62.08,62.08,0,0,1,1274.89,492a65.06,65.06,0,0,1,63.51,3.59l.68.44A61.22,61.22,0,0,1,1366.28,538.44Zm-25,7.59a34.2,34.2,0,0,0-2.16-12,16.41,16.41,0,0,0-.68-1.65,35.9,35.9,0,0,0-33.12-21.51c-19.86,0-35.94,15.76-35.93,35.17s16.11,35.14,36,35.13a35.89,35.89,0,0,0,33.09-21.55,14.36,14.36,0,0,0,.68-1.65A34,34,0,0,0,1341.26,546Z" transform="translate(-799 -440.27)"/><path class="cls-4" d="M1217.46,540.72l0,55.65a13.45,13.45,0,0,1-6.68,11.54,14.1,14.1,0,0,1-7.24,2,13.81,13.81,0,0,1-13.79-11.49,12.12,12.12,0,0,1-.15-2l0-63a36.19,36.19,0,0,0-67.95,3.74l0,58.54a12.93,12.93,0,0,1-.64,4,14,14,0,0,1-27.22-4l0-66.31a61.89,61.89,0,0,1,27.84-34.65,65.16,65.16,0,0,1,68,1.46A61.2,61.2,0,0,1,1217.46,540.72Z" transform="translate(-799 -440.27)"/><path class="cls-4" d="M874.09,483.87c35,0,63.44,27.5,63.46,61.48s-28.35,61.53-63.39,61.55a64.64,64.64,0,0,1-31.57-8.15,61.66,61.66,0,0,1-30.37-40l-.06-103.07A15,15,0,0,1,827.33,441a15.27,15.27,0,0,1,10.72,4.32,14.32,14.32,0,0,1,4.46,10.39l0,36.36A64.6,64.6,0,0,1,874.09,483.87Zm37.83,60.61c0-19.4-16.11-35.14-36-35.13a35.94,35.94,0,0,0-33.4,22.25,34.22,34.22,0,0,0,0,25.85A36,36,0,0,0,876,579.65C895.85,579.64,911.93,563.89,911.92,544.48Z" transform="translate(-799 -440.27)"/></g><ellipse class="cls-5" cx="999.94" cy="548.71" rx="28.55" ry="27.77" transform="translate(-813.7 -412.6) rotate(-1.57)"/><path class="cls-6" d="M1080.2,648.64a15,15,0,0,1-5,20.25l-6.89,4.23-36.6-68.86a63,63,0,0,0,15.5-12.76Z" transform="translate(-799 -440.27)"/><path class="cls-7" d="M1031.73,604.26l36.6,68.86-3.67,2.25a14.1,14.1,0,0,1-19.64-5.15l-33.76-58.52A60.43,60.43,0,0,0,1031.73,604.26Z" transform="translate(-799 -440.27)"/><path d="M1063.51,547.29a65.32,65.32,0,0,1-16.28,44.21l-6.36-11a14.18,14.18,0,0,0-15.29-6.9,37.2,37.2,0,0,0,9.91-25.89c-.25-20.25-16.38-36.44-36-36.17a34.41,34.41,0,0,0-15.1,3.68l-12.73-23.93a60.76,60.76,0,0,1,28.56-7.54C1034.71,483.25,1063.05,511.72,1063.51,547.29Z" transform="translate(-799 -440.27)"/><path d="M1040.87,580.46l6.36,11a63,63,0,0,1-15.5,12.76l-13.22-24.84a36.14,36.14,0,0,0,7.07-5.86A14.18,14.18,0,0,1,1040.87,580.46Z" transform="translate(-799 -440.27)"/><path class="cls-5" d="M1035.49,547.67a37.2,37.2,0,0,1-9.91,25.89,14,14,0,0,0-4.35,1.76l-3.69,2.26-3.34-6.29a28.24,28.24,0,0,0-6.59-52.24l-.52-.14a27.73,27.73,0,0,0-19.66,2l-3.06-5.77a34.41,34.41,0,0,1,15.1-3.68C1019.11,511.23,1035.24,527.42,1035.49,547.67Z" transform="translate(-799 -440.27)"/><path class="cls-8" d="M1018.51,579.42l13.22,24.84a60.43,60.43,0,0,1-20.47,7.44l-5.57-9.65a15.1,15.1,0,0,1,2.37-18.2A34.74,34.74,0,0,0,1018.51,579.42Z" transform="translate(-799 -440.27)"/><path class="cls-9" d="M1024.21,532a30,30,0,0,1,2.73,24.48,29.78,29.78,0,0,0-3.88-11A28.13,28.13,0,0,0,993.3,532l-5.73-10.78a28.71,28.71,0,0,1,12.53-3.06,29.26,29.26,0,0,1,7,.76l.52.14A28.43,28.43,0,0,1,1024.21,532Z" transform="translate(-799 -440.27)"/><path class="cls-10" d="M1026.94,556.43a30,30,0,0,0-2.73-24.48,28.43,28.43,0,0,0-16.6-12.9,28.24,28.24,0,0,1,6.59,52.24L993.3,532a28.13,28.13,0,0,1,29.76,13.43A29.78,29.78,0,0,1,1026.94,556.43Z" transform="translate(-799 -440.27)"/><path class="cls-5" d="M1021.23,575.32a14,14,0,0,1,4.35-1.76,36.14,36.14,0,0,1-7.07,5.86l-1-1.84Z" transform="translate(-799 -440.27)"/><path class="cls-11" d="M1017.54,577.58l1,1.84a34.74,34.74,0,0,1-10.45,4.43,13.86,13.86,0,0,1,2.61-2.06Z" transform="translate(-799 -440.27)"/><path class="cls-11" d="M1014.2,571.29l3.34,6.29-6.87,4.21a13.86,13.86,0,0,0-2.61,2.06,35.07,35.07,0,0,1-7.66,1c-19.64.26-35.76-15.93-36-36.18a36.79,36.79,0,0,1,20-33.45l3.06,5.77a23,23,0,0,0-2.5,1.4,29.84,29.84,0,0,0-13.4,29.41q.27-.87.6-1.71a28.6,28.6,0,0,0,42.07,21.24Z" transform="translate(-799 -440.27)"/><path class="cls-12" d="M993.3,532l20.9,39.3a28.6,28.6,0,0,1-42.07-21.24,29.3,29.3,0,0,1,11.66-14.23A27.91,27.91,0,0,1,993.3,532Z" transform="translate(-799 -440.27)"/><path class="cls-8" d="M1005.69,602.05l5.57,9.65a59.68,59.68,0,0,1-9.43.86c-34.51.47-62.85-28-63.3-63.58a64.74,64.74,0,0,1,33.11-57.73l12.73,23.93a36.79,36.79,0,0,0-20,33.45c.26,20.25,16.38,36.44,36,36.18a35.07,35.07,0,0,0,7.66-1A15.1,15.1,0,0,0,1005.69,602.05Z" transform="translate(-799 -440.27)"/><path class="cls-12" d="M1007.61,519.05l-.52-.14Z" transform="translate(-799 -440.27)"/><path class="cls-9" d="M1007.09,518.91a29.26,29.26,0,0,0-7-.76,28.71,28.71,0,0,0-12.53,3.06l-.14-.26A27.73,27.73,0,0,1,1007.09,518.91Z" transform="translate(-799 -440.27)"/><path class="cls-9" d="M987.57,521.21,993.3,532a27.91,27.91,0,0,0-9.51,3.83,29.3,29.3,0,0,0-11.66,14.23,30.3,30.3,0,0,1-.23-3.19A28.35,28.35,0,0,1,987.57,521.21Z" transform="translate(-799 -440.27)"/><path class="cls-9" d="M987.43,521l.14.26a28.35,28.35,0,0,0-15.67,25.65,30.3,30.3,0,0,0,.23,3.19q-.33.84-.6,1.71a29.84,29.84,0,0,1,13.4-29.41A23,23,0,0,1,987.43,521Z" transform="translate(-799 -440.27)"/><path class="cls-7" d="M1779.45,538a57.31,57.31,0,0,1,.6,8.46,55.25,55.25,0,0,1-.6,8.46Z" transform="translate(-799 -440.27)"/><path class="cls-7" d="M1779.45,554.87l0,41.92a13.71,13.71,0,0,1-13.92,13.52,14,14,0,0,1-9.86-3.95,13.31,13.31,0,0,1-4-8.63,64.24,64.24,0,0,1-35,10.23c-35,0-63.44-27.5-63.46-61.48a59.74,59.74,0,0,1,11.27-35,62.15,62.15,0,0,1,23.58-19.93,65.06,65.06,0,0,1,63.51,3.59l.68.44A61.24,61.24,0,0,1,1779.45,538Zm-25-9.32a34,34,0,0,0-2.16-12,16.41,16.41,0,0,0-.68-1.65,35.9,35.9,0,0,0-33.12-21.51c-19.86,0-35.94,15.76-35.93,35.17s16.11,35.14,36,35.13a35.89,35.89,0,0,0,33.09-21.55,14.36,14.36,0,0,0,.68-1.65A34,34,0,0,0,1754.42,545.55Z" transform="translate(-799 -440.27)"/><path class="cls-7" d="M1632,580.18a13.72,13.72,0,0,1,13.94,13.51,13.23,13.23,0,0,1-4.07,9.55,14.05,14.05,0,0,1-9.85,4l-107,.07a16,16,0,0,1-2.19-1.61,13.22,13.22,0,0,1-.84-19.08l6-6.34,64.67-68.43.27-.29-57.77,0a13.52,13.52,0,1,1,0-27l96.72-.06a13.12,13.12,0,0,1,3.44,2.2s0,0,0,0a13.26,13.26,0,0,1,.84,19.08l-5.4,5.71-.07.08-64.94,68.65Z" transform="translate(-799 -440.27)"/><path class="cls-7" d="M1498.1,540.09a58.09,58.09,0,0,1,0,13.18Z" transform="translate(-799 -440.27)"/><path class="cls-7" d="M1498.11,553.27l0,42.48a13.48,13.48,0,0,1-6.68,11.54,14.23,14.23,0,0,1-7.25,2,13.82,13.82,0,0,1-13.78-11.49,11.17,11.17,0,0,1-.16-2l0-63a36.19,36.19,0,0,0-68,3.74l0,58.55a13.27,13.27,0,0,1-.64,4,14,14,0,0,1-27.23-4l0-66.31a61.94,61.94,0,0,1,27.85-34.65,65.21,65.21,0,0,1,68,1.46,61.23,61.23,0,0,1,27.88,44.58Z" transform="translate(-799 -440.27)"/><path class="cls-7" d="M1353.13,537.72l0,58.84a13.71,13.71,0,0,1-13.92,13.52,14.07,14.07,0,0,1-9.86-4,13.25,13.25,0,0,1-4-8.63,64.27,64.27,0,0,1-35,10.23c-35,0-63.44-27.5-63.46-61.48a59.74,59.74,0,0,1,11.27-35,62.1,62.1,0,0,1,23.59-19.93,65,65,0,0,1,63.5,3.59l.68.44A61.24,61.24,0,0,1,1353.13,537.72Zm-25,7.6a34,34,0,0,0-2.16-12,14.36,14.36,0,0,0-.68-1.65,35.9,35.9,0,0,0-33.12-21.51c-19.86,0-35.93,15.76-35.92,35.17s16.1,35.14,36,35.13a35.92,35.92,0,0,0,33.1-21.55,16.41,16.41,0,0,0,.68-1.65A34.19,34.19,0,0,0,1328.1,545.32Z" transform="translate(-799 -440.27)"/><path class="cls-7" d="M1204.3,540l0,55.65a13.44,13.44,0,0,1-6.67,11.54,14.26,14.26,0,0,1-7.25,2,13.83,13.83,0,0,1-13.79-11.49,12.12,12.12,0,0,1-.15-2l0-63a36.19,36.19,0,0,0-68,3.73l0,58.55a12.93,12.93,0,0,1-.64,4,14,14,0,0,1-27.22-4l0-66.31A61.92,61.92,0,0,1,1108.46,494a65.17,65.17,0,0,1,68,1.47A61.2,61.2,0,0,1,1204.3,540Z" transform="translate(-799 -440.27)"/><path class="cls-7" d="M860.93,483.16c35,0,63.45,27.5,63.47,61.47S896,606.16,861,606.18A64.5,64.5,0,0,1,829.44,598a61.65,61.65,0,0,1-30.38-40L799,455a15,15,0,0,1,15.17-14.73,15.23,15.23,0,0,1,10.72,4.32A14.37,14.37,0,0,1,829.36,455l0,36.36A64.45,64.45,0,0,1,860.93,483.16Zm37.83,60.61c0-19.41-16.1-35.14-36-35.13a35.93,35.93,0,0,0-33.4,22.25,34.34,34.34,0,0,0,0,25.85,36,36,0,0,0,33.43,22.2C882.7,578.93,898.77,563.18,898.76,543.77Z" transform="translate(-799 -440.27)"/></svg>