<svg id="Layer_1" data-name="Layer 1" xmlns="http://www.w3.org/2000/svg" viewBox="0 0 132.09 175.07"><defs><style>.cls-1{fill:#599faa;}.cls-2{fill:#c14721;}.cls-3{fill:#f15a24;}.cls-4{fill:#333;}.cls-5{fill:#ccc;}.cls-6{fill:#7fc5cc;}.cls-7{fill:#75c2d3;}.cls-8{fill:#92cfe0;}.cls-9{fill:#fff;}</style></defs><title>LupaOrange</title><ellipse class="cls-1" cx="57" cy="58.5" rx="26.5" ry="25"/><path class="cls-2" d="M138.8,160.92a13.3,13.3,0,0,1-4.86,18.17l-6.44,3.72L94.34,120.39a58.19,58.19,0,0,0,14.54-11.3Z" transform="translate(-8.5 -11.5)"/><path class="cls-3" d="M94.34,120.39l33.16,62.42-3.44,2a13.29,13.29,0,0,1-18.16-4.87L75.26,126.84A57.27,57.27,0,0,0,94.34,120.39Z" transform="translate(-8.5 -11.5)"/><path d="M124.5,69.5a57.76,57.76,0,0,1-15.62,39.59l-5.78-10A13.3,13.3,0,0,0,89,92.68a33,33,0,0,0-37.56-53L39.91,17.94A58,58,0,0,1,124.5,69.5Z" transform="translate(-8.5 -11.5)"/><path d="M103.1,99.08l5.78,10a58.19,58.19,0,0,1-14.54,11.3l-12-22.52A33.39,33.39,0,0,0,89,92.68,13.3,13.3,0,0,1,103.1,99.08Z" transform="translate(-8.5 -11.5)"/><path class="cls-1" d="M98.5,69.5A32.92,32.92,0,0,1,89,92.68a13.14,13.14,0,0,0-4.06,1.53l-3.45,2-3-5.7A25.35,25.35,0,0,0,92.5,68c0-11.76-8.28-21.67-19.54-24.6l-.48-.13a26.49,26.49,0,0,0-18.27,1.59l-2.77-5.23A33,33,0,0,1,98.5,69.5Z" transform="translate(-8.5 -11.5)"/><path class="cls-4" d="M82.37,97.87l12,22.52a57.27,57.27,0,0,1-19.08,6.45l-5.06-8.76a13.28,13.28,0,0,1,2.42-16.35A32.74,32.74,0,0,0,82.37,97.87Z" transform="translate(-8.5 -11.5)"/><path class="cls-5" d="M88.21,55.21a26.29,26.29,0,0,1,2.25,22.07A26.37,26.37,0,0,0,59.53,54.87L54.34,45.1A27.26,27.26,0,0,1,66,42.5a27.57,27.57,0,0,1,6.48.77l.48.13A26.27,26.27,0,0,1,88.21,55.21Z" transform="translate(-8.5 -11.5)"/><path class="cls-6" d="M90.46,77.28A26.32,26.32,0,0,0,73,43.4C84.22,46.33,92.5,56.24,92.5,68a25.35,25.35,0,0,1-14,22.5L59.53,54.87A26.37,26.37,0,0,1,90.46,77.28Z" transform="translate(-8.5 -11.5)"/><path class="cls-1" d="M84.94,94.21A13.14,13.14,0,0,1,89,92.68a33.39,33.39,0,0,1-6.63,5.19l-.88-1.67Z" transform="translate(-8.5 -11.5)"/><path class="cls-7" d="M81.49,96.2l.88,1.67a32.74,32.74,0,0,1-9.75,3.86,13,13,0,0,1,2.44-1.82Z" transform="translate(-8.5 -11.5)"/><path class="cls-7" d="M78.46,90.5l3,5.7-6.43,3.71a13,13,0,0,0-2.44,1.82,33.33,33.33,0,0,1-7.12.77A33,33,0,0,1,51.44,39.63l2.77,5.23a22.61,22.61,0,0,0-2.33,1.23A26.58,26.58,0,0,0,39.09,72.4c.18-.52.37-1,.58-1.53C41.15,83.6,52.37,93.5,66,93.5A27,27,0,0,0,78.46,90.5Z" transform="translate(-8.5 -11.5)"/><path class="cls-8" d="M59.53,54.87,78.46,90.5A27,27,0,0,1,66,93.5c-13.63,0-24.85-9.9-26.33-22.63a26.74,26.74,0,0,1,19.86-16Z" transform="translate(-8.5 -11.5)"/><path class="cls-4" d="M70.2,118.08l5.06,8.76A58,58,0,0,1,39.91,17.94L51.44,39.63A33,33,0,0,0,65.5,102.5a33.33,33.33,0,0,0,7.12-.77A13.28,13.28,0,0,0,70.2,118.08Z" transform="translate(-8.5 -11.5)"/><path class="cls-8" d="M73,43.4l-.48-.13Z" transform="translate(-8.5 -11.5)"/><path class="cls-9" d="M72.48,43.27A27.57,27.57,0,0,0,66,42.5a27.26,27.26,0,0,0-11.66,2.6l-.13-.24A26.49,26.49,0,0,1,72.48,43.27Z" transform="translate(-8.5 -11.5)"/><path class="cls-9" d="M54.34,45.1l5.19,9.77a26.74,26.74,0,0,0-19.86,16A24.71,24.71,0,0,1,39.5,68,25.43,25.43,0,0,1,54.34,45.1Z" transform="translate(-8.5 -11.5)"/><path class="cls-9" d="M54.21,44.86l.13.24A25.43,25.43,0,0,0,39.5,68a24.71,24.71,0,0,0,.17,2.87c-.21.5-.4,1-.58,1.53A26.58,26.58,0,0,1,51.88,46.09,22.61,22.61,0,0,1,54.21,44.86Z" transform="translate(-8.5 -11.5)"/></svg>