<svg id="Layer_1" data-name="Layer 1" xmlns="http://www.w3.org/2000/svg" viewBox="0 0 132.09 175.07"><defs><style>.cls-1{fill:#599faa;}.cls-2{fill:#22995e;}.cls-3{fill:#37b77a;}.cls-4{fill:#333;}.cls-5{fill:#fff;}.cls-6{fill:#7fc5cc;}.cls-7{fill:#75c2d3;}.cls-8{fill:#92cfe0;}</style></defs><title>LupaGreen</title><ellipse class="cls-1" cx="57" cy="58.5" rx="26.5" ry="25"/><path class="cls-2" d="M135.8,154.92a13.3,13.3,0,0,1-4.86,18.17l-6.44,3.72L91.34,114.39a58.19,58.19,0,0,0,14.54-11.3Z" transform="translate(-5.5 -5.5)"/><path class="cls-3" d="M91.34,114.39l33.16,62.42-3.44,2a13.29,13.29,0,0,1-18.16-4.87L72.26,120.84A57.27,57.27,0,0,0,91.34,114.39Z" transform="translate(-5.5 -5.5)"/><path d="M121.5,63.5a57.76,57.76,0,0,1-15.62,39.59l-5.78-10A13.3,13.3,0,0,0,86,86.68a33,33,0,0,0-37.56-53L36.91,11.94A58,58,0,0,1,121.5,63.5Z" transform="translate(-5.5 -5.5)"/><path d="M100.1,93.08l5.78,10a58.19,58.19,0,0,1-14.54,11.3l-12-22.52A33.39,33.39,0,0,0,86,86.68,13.3,13.3,0,0,1,100.1,93.08Z" transform="translate(-5.5 -5.5)"/><path class="cls-1" d="M95.5,63.5A32.92,32.92,0,0,1,86,86.68a13.14,13.14,0,0,0-4.06,1.53l-3.45,2-3-5.7A25.35,25.35,0,0,0,89.5,62c0-11.76-8.28-21.67-19.54-24.6l-.48-.13a26.49,26.49,0,0,0-18.27,1.59l-2.77-5.23A33,33,0,0,1,95.5,63.5Z" transform="translate(-5.5 -5.5)"/><path class="cls-4" d="M79.37,91.87l12,22.52a57.27,57.27,0,0,1-19.08,6.45l-5.06-8.76a13.28,13.28,0,0,1,2.42-16.35A32.74,32.74,0,0,0,79.37,91.87Z" transform="translate(-5.5 -5.5)"/><path class="cls-5" d="M85.21,49.21a26.29,26.29,0,0,1,2.25,22.07A26.37,26.37,0,0,0,56.53,48.87L51.34,39.1A27.26,27.26,0,0,1,63,36.5a27.57,27.57,0,0,1,6.48.77l.48.13A26.27,26.27,0,0,1,85.21,49.21Z" transform="translate(-5.5 -5.5)"/><path class="cls-6" d="M87.46,71.28A26.32,26.32,0,0,0,70,37.4C81.22,40.33,89.5,50.24,89.5,62a25.35,25.35,0,0,1-14,22.5L56.53,48.87A26.37,26.37,0,0,1,87.46,71.28Z" transform="translate(-5.5 -5.5)"/><path class="cls-1" d="M81.94,88.21A13.14,13.14,0,0,1,86,86.68a33.39,33.39,0,0,1-6.63,5.19l-.88-1.67Z" transform="translate(-5.5 -5.5)"/><path class="cls-7" d="M78.49,90.2l.88,1.67a32.74,32.74,0,0,1-9.75,3.86,13,13,0,0,1,2.44-1.82Z" transform="translate(-5.5 -5.5)"/><path class="cls-7" d="M75.46,84.5l3,5.7-6.43,3.71a13,13,0,0,0-2.44,1.82,33.33,33.33,0,0,1-7.12.77A33,33,0,0,1,48.44,33.63l2.77,5.23a22.61,22.61,0,0,0-2.33,1.23A26.58,26.58,0,0,0,36.09,66.4c.18-.52.37-1,.58-1.53C38.15,77.6,49.37,87.5,63,87.5A27,27,0,0,0,75.46,84.5Z" transform="translate(-5.5 -5.5)"/><path class="cls-8" d="M56.53,48.87,75.46,84.5A27,27,0,0,1,63,87.5c-13.63,0-24.85-9.9-26.33-22.63a26.74,26.74,0,0,1,19.86-16Z" transform="translate(-5.5 -5.5)"/><path class="cls-4" d="M67.2,112.08l5.06,8.76A58,58,0,0,1,36.91,11.94L48.44,33.63A33,33,0,0,0,62.5,96.5a33.33,33.33,0,0,0,7.12-.77A13.28,13.28,0,0,0,67.2,112.08Z" transform="translate(-5.5 -5.5)"/><path class="cls-8" d="M70,37.4l-.48-.13Z" transform="translate(-5.5 -5.5)"/><path class="cls-5" d="M69.48,37.27A27.57,27.57,0,0,0,63,36.5a27.26,27.26,0,0,0-11.66,2.6l-.13-.24A26.49,26.49,0,0,1,69.48,37.27Z" transform="translate(-5.5 -5.5)"/><path class="cls-5" d="M51.34,39.1l5.19,9.77a26.74,26.74,0,0,0-19.86,16A24.71,24.71,0,0,1,36.5,62,25.43,25.43,0,0,1,51.34,39.1Z" transform="translate(-5.5 -5.5)"/><path class="cls-5" d="M51.21,38.86l.13.24A25.43,25.43,0,0,0,36.5,62a24.71,24.71,0,0,0,.17,2.87c-.21.5-.4,1-.58,1.53A26.58,26.58,0,0,1,48.88,40.09,22.61,22.61,0,0,1,51.21,38.86Z" transform="translate(-5.5 -5.5)"/></svg>