<svg width="22" height="32" xmlns="http://www.w3.org/2000/svg">

<defs stroke="null" transform="translate(0,-1.000006914138794) translate(-0.9999996423721313,0) translate(1,1) translate(-4.6368513107299805,0) translate(0,-99.54367065429688) translate(-15,87) translate(4,-1) translate(1,0) translate(0,-1.4210854715202004e-14) translate(1.0000008344650269,1.0000083446502686) scale(1,0.9376556277275085) translate(-1.0000008344650269,-1.0000083446502686) translate(1.0000008344650269,1.0664970874786377) scale(0.6129876971244812,0.7739353775978088) translate(-1.0000008344650269,-1.0664970874786377) translate(1.6313539743423462,1.3780194520950317) scale(1.086093783378601,1) translate(-1.6313539743423462,-1.3780194520950317) translate(1.502036690711975,1.3780194520950317) scale(0.8546732068061829,0.7723357081413269) translate(-1.502036690711975,-1.3780194520950317) translate(1.7574409246444702,1.7842209339141846) scale(0.706298291683197,0.7441586852073669) translate(-1.7574409246444702,-1.7842209339141846) translate(2.4882404804229736,2.397636890411377) scale(0.9452852010726929,0.9402087926864624) translate(-2.4882404804229736,-2.397636890411377) translate(2.632265090942383,2.550110340118408) scale(0.9884236454963684,1) translate(-2.632265090942383,-2.550110340118408) translate(3.7850534795325075e-7,-3.239543104882614e-7) scale(1.0234239101409912,1.0317968130111694) translate(-3.7850534795325075e-7,3.239543104882614e-7) translate(-5.422760978035512e-7,0.0000017066703321688692) scale(1.0085829496383667,0.982665479183197) translate(5.422760978035512e-7,-0.0000017066703321688692) ">
    <style stroke="null">.cls-1{fill:#37b77a;}.cls-2{fill:gray;}.cls-3{fill:#288c59;}.cls-4{fill:#666;}.cls-5{fill:#5fb2c9;}.cls-6{fill:#fff;}.cls-7{fill:#4d4d4d;}.cls-8{fill:#4492ad;}.cls-9{fill:#ccc;}.cls-10{fill:none;stroke:#000;stroke-miterlimit:10;}</style>
</defs>

<title>simple pin</title>

<g>
 <title>background</title>
  <rect fill="none" id="canvas_background" height="34" width="24" y="-1" x="-1"/>
</g>

 <g>
  <title>Layer 1</title>
  <g stroke="null" id="svg_34">
    <title stroke="null" transform="matrix(0.04853558732174518,0,0,0.05074941988674364,-0.0038554062768170186,0.0010150868408319161) ">green pin</title>
   <g stroke="null" transform="matrix(0.04853558732174518,0,0,0.05074941988674364,6.313955890661143,6.002268495061609) " id="svg_35">
    <title stroke="null" transform="translate(0,-19.978910446166992) translate(-21.267024993896484,0) translate(7.985832691192627,7.834527969360352) translate(-37.029117584228516,0) translate(-1.4210854715202004e-14,-779.877685546875) translate(-119.78749084472656,681.6039428710938) translate(31.943330764770508,-7.834527969360352) translate(7.985832691192627,0) translate(-1.4210854715202004e-14,-1.1368683772161603e-13) ">Layer 1</title>
    <path stroke="null" class="cls-9" d="m188.871373,75.107347l0,20.87a41.85,41.85 0 0 0 -27.51,-2.87c-7.61,1.09 -4,-3.62 -3.48001,-4.29l0.07,-0.08a39.53,39.53 0 0 1 30.92001,-13.63z" id="svg_33"/>
    <path stroke="null" class="cls-10" d="m-119.908637,322.277347l-0.06,0.06" id="svg_32"/>
    <path stroke="null" class="cls-10" d="m-129.668627,319.727347c0,-0.13 0,-0.2 0,-0.2" id="svg_31"/>
    <path stroke="null" class="cls-10" d="m9.621373,338.647347c0,-0.12 -0.1,-0.22 -0.13,-0.3l-0.07,-0.15a0.08,0.08 0 0 1 0,0" id="svg_30"/>
     <g stroke="null" id="svg_19">
     <path stroke="null" class="cls-1" d="m323.871373,101.717347l0,0a19,19 0 0 1 -18.87,17l-37.06,0a19,19 0 0 1 -17.12001,-10.79q-0.3,-6.94 -1.20999,-13.71c-0.19,-1.47 -0.4,-2.92 -0.64,-4.37a154,154 0 0 0 -150.1,-129.12l0,-79c106.06,0.87 194.79,74.48 218.73,173.39a229,229 0 0 1 4.68,25.74q0.81,6.62 1.23,13.36q0.24,3.75 0.36,7.5z" id="svg_29"/>
     <path stroke="null" class="cls-1" d="m241.121373,275.367347a24.79,24.79 0 0 1 -1.14,28l0.58,0.4l-124.56,195.83a22.31,22.31 0 0 1 -17.13,10.37l0,-118.38a10.14,10.14 0 0 0 6.71,-4.54l35.51,-55.59l14.47,-22.64l0.18,-0.29c10.38,-16.63 -0.8,-37 -1.8,-38.79l-0.07,-0.12l-6.89,-11a123.14,123.14 0 0 0 58.91,-39.45l3.43,5.47l31.8,50.73z" id="svg_28"/>
     <path stroke="null" class="cls-2" d="m219.871373,117.247347a120,120 0 0 1 -28.33,77.62c-0.17,0.21 -0.35,0.41 -0.52,0.61l-0.38,-0.61a120.42,120.42 0 0 1 -59.56,38.41l0.13,0.21a120.29,120.29 0 0 1 -31.84,4.26l-0.5,0l0,-0.28l0,0c58.15,-20.05 99,-67.21 99,-122.21c0,-51.49 -35.8,-96.13 -88.1,-118a120.49,120.49 0 0 1 110.1,120.05l0,-0.06z" id="svg_27"/>
     <path stroke="null" class="cls-3" d="m191.021363,195.477347l14.87,23.7a123.14,123.14 0 0 1 -58.91,39.45l-15.77,-25.14l0.77,-0.21a120.43,120.43 0 0 0 59.04,-37.8z" id="svg_26"/>
     <path stroke="null" class="cls-4" d="m109.771373,-2.802653c52.29999,21.92 88.1,66.56 88.1,118.05c0,55 -40.85001,102.16 -99,122.21l0,-65.72l0.5,0a54.5,54.5 0 0 0 0,-109l-0.5,0l0,-66l0.5,0q5.25,0.01 10.4,0.46z" id="svg_25"/>
     <path stroke="null" class="cls-5" d="m99.371373,62.747347a54.5,54.5 0 0 1 0,109l-0.5,0l0,-75.79a44.45,44.45 0 0 1 8.31,5c13.75,10.38 19.74,27 16.46,41.73l0,0s0,0.05 0,0.09s0,0.1 0,0.16c-0.27,1.46 -1.22,8.21 5.17,3.6a38.28,38.28 0 0 0 4.83999,-5.3c13.34,-17.69 9.14,-43.36 -9.38,-57.34a43.06,43.06 0 0 0 -25.4,-8.79l0,-12.35l0.5,-0.01l0.00001,0z" id="svg_24"/>
     <path stroke="null" class="cls-6" d="m124.211373,83.877347c18.52,14 22.72,39.65 9.38,57.34a38.28,38.28 0 0 1 -4.84,5.3c-6.39,4.61 -5.44,-2.14 -5.17,-3.6c0,-0.06 0,-0.12 0,-0.16s0,-0.07 0,-0.09l0,0c3.28,-14.74 -2.71,-31.35 -16.46,-41.73a44.45,44.45 0 0 0 -8.31,-5l0,-20.83a43.06,43.06 0 0 1 25.4,8.77z" id="svg_23"/>
     <path stroke="null" class="cls-7" d="m98.871373,237.457347l0,0l-0.79,0.27l0,0a120.49,120.49 0 0 1 0.8,-241l0,66a54.49,54.49 0 0 0 0,109l-0.01,65.73z" id="svg_22"/>
     <path stroke="null" class="cls-3" d="m98.871373,391.587347l0,118.38a23,23 0 0 1 -4,0a22,22 0 0 1 -2.91,-0.46a22.26,22.26 0 0 1 -14,-9.9l-159.2,-250.25l-24.88,-39.11a227,227 0 0 1 203.09,-328.5l1.9,0l0,79l-1.9,0a154,154 0 0 0 -133.59,230.65l0.05,0.09q3.53,6.12 7.59,11.87l25.8,40.39l56,87.71l35.51,55.59a10.17,10.17 0 0 0 10.54,4.54z" id="svg_21"/>
     <path stroke="null" class="cls-8" d="m98.871373,95.957347l0,75.78a54.49,54.49 0 0 1 0,-109l0,12.37a39.53,39.53 0 0 0 -30.92001,13.68l-0.07,0.08c-0.55,0.67 -4.12999,5.38 3.48,4.29a41.85,41.85 0 0 1 27.51,2.8l0.00001,0z" id="svg_20"/>
    </g>
   </g>
  </g>
 </g>
</svg>